<mxfile host="app.diagrams.net" modified="2024-04-17T10:50:44.073Z" agent="Mozilla/5.0 (Macintosh; Intel Mac OS X 10_15_7) AppleWebKit/537.36 (KHTML, like Gecko) Chrome/123.0.0.0 Safari/537.36 Edg/123.0.0.0" version="24.0.1" etag="huO67XGz_ngdAuGKi9m5" type="github">
  <diagram name="第 1 页" id="bL2bV6wZ8aXgP3QGGtM7">
    <mxGraphModel>
      <root>
        <mxCell id="0" />
        <mxCell id="1" parent="0" />
      </root>
    </mxGraphModel>
  </diagram>
</mxfile>
